<?xml version="1.0" encoding="UTF-8"?>
<svg id="Layer_1" data-name="Layer 1" xmlns="http://www.w3.org/2000/svg" viewBox="0 0 720 720">
  <defs>
    <style>
      .cls-1 {
        fill: #c3c3c3;
      }

      .cls-1, .cls-2 {
        stroke-width: 0px;
      }

      .cls-2 {
        fill: #03aa0f;
      }
    </style>
  </defs>
  <path class="cls-2" d="m380.195,312.88c-5.585,3.226-11.031,6.373-16.438,9.496-.783-.602-1.054-1.378-1.449-2.061-17.074-29.554-34.106-59.133-51.235-88.655-4.62-7.963-11.024-14.288-18.953-18.986-9.07-5.375-18.766-6.631-28.889-3.766-9.395,2.659-17.661,7.425-24.674,14.237-9.313,9.045-12.475,20.214-10.848,32.859,1.01,7.852,3.675,15.155,7.659,22.037,23.91,41.306,47.754,82.65,71.616,123.983,11.952,20.702,23.794,41.468,35.885,62.088,6.761,11.531,16.024,20.722,27.715,27.3,11.803,6.641,24.405,8.53,37.55,5.249,15.346-3.83,28.596-11.491,39.274-23.22,10.196-11.199,14.203-24.609,13.078-39.599-.925-12.321-4.727-23.721-10.919-34.426-32.819-56.735-65.556-113.517-98.345-170.27-1.66-2.873-2.281-5.796-1.055-8.935,1.366-3.495,3.981-5.599,7.677-6.103,3.705-.506,6.746.885,9.029,3.848.485.629.857,1.348,1.257,2.039,33.132,57.385,66.283,114.758,99.372,172.167,6.386,11.08,10.076,23.099,11.706,35.768,1.514,11.769.564,23.297-3.33,34.537-3.931,11.349-10.483,21.003-19.294,29.082-12.727,11.67-27.4,19.924-44.262,23.865-21.358,4.992-40.938.514-58.73-12.038-11.598-8.182-20.957-18.477-28.066-30.792-35.886-62.171-71.814-124.317-107.633-186.527-7.405-12.861-10.756-26.823-9.527-41.684.992-12.004,5.506-22.669,13.608-31.594,11.606-12.784,25.934-20.917,43.021-23.827,12.614-2.148,24.532.267,35.642,6.471,11.052,6.171,20.057,14.689,26.431,25.584,17.798,30.425,35.311,61.016,53.126,91.871Z"/>
  <path class="cls-1" d="m570.682,283.512c-.192,3.557-1.739,6.446-4.843,8.286-10.3,6.107-20.654,12.122-30.975,18.193-8.6,5.059-17.177,10.158-25.782,15.209-1.306.766-2.652,1.54-4.078,2.013-4.206,1.397-8.388-.133-11.012-4.104-4.622-6.994-9.143-14.054-13.684-21.101-1.108-1.719-1.092-1.783-2.938-.716-6.497,3.755-12.972,7.548-19.465,11.309-3.731,2.161-7.466,4.316-11.23,6.417-1.479.825-1.537.765-2.385-.698-2.642-4.559-5.221-9.156-7.935-13.671-.718-1.194-.341-1.62.668-2.2,5.745-3.301,11.453-6.666,17.188-9.984,6.635-3.837,13.283-7.651,19.93-11.467,1.315-.755,2.661-1.457,3.974-2.217,3.659-2.117,9.606-.718,12.092,3.164,4.393,6.858,8.873,13.659,13.318,20.483.305.469.655.911.925,1.399.541.979,1.17,1.101,2.151.516,4.593-2.74,9.221-5.423,13.834-8.129,8.951-5.251,17.901-10.505,26.851-15.757,3.03-1.778,6.057-3.559,9.091-5.329,5.214-3.04,13.815-.27,14.305,8.384Z"/>
  <path class="cls-1" d="m174.343,475.644c-5.025-.141-8.436-3.055-9.639-6.718-1.378-4.196.105-8.559,3.814-10.877,4.195-2.622,8.516-5.044,12.795-7.532,10.836-6.3,21.672-12.6,32.523-18.876,9.745-5.636,19.517-11.226,29.264-16.861,6.566-3.796,13.111-7.627,19.658-11.456,2.479-1.45,2.602-1.399,3.988,1.055,2.122,3.753,4.275,7.489,6.474,11.197,1.707,2.879,1.775,2.901-1.177,4.624-6.412,3.744-12.861,7.426-19.283,11.153-9.668,5.61-19.314,11.255-28.99,16.85-10.852,6.275-21.73,12.505-32.59,18.765-4.081,2.352-8.15,4.725-12.214,7.108-1.542.905-3.201,1.394-4.622,1.569Z"/>
  <path class="cls-1" d="m389.891,329.724c2.57,4.431,5.05,8.704,7.526,12.979.24.415.42.868.687,1.263,1.962,2.91,1.245,2.517-1.04,3.859-9.706,5.7-19.5,11.25-29.243,16.888-9.604,5.557-19.179,11.164-28.778,16.731-5.456,3.164-10.918,6.317-16.408,9.422-2.059,1.165-2.129,1.115-3.314-.915-2.455-4.206-4.877-8.431-7.304-12.653-.7-1.217-.911-1.969.71-2.885,7.09-4.002,14.114-8.122,21.158-12.206,7.32-4.245,14.632-8.503,21.954-12.745,6.769-3.922,13.548-7.827,20.317-11.748,4.486-2.599,8.963-5.213,13.736-7.99Z"/>
  <path class="cls-2" d="m317.797,348.912c-5.577,3.221-10.958,6.329-16.278,9.401-.831-.254-.963-.946-1.263-1.465-11.188-19.358-22.355-38.728-33.553-58.079-1.462-2.527-2.21-5.11-1.377-8.007,1.128-3.922,3.742-6.329,7.695-7.004,3.867-.66,7.061.774,9.423,3.941.332.446.588.95.867,1.434,11.262,19.499,22.522,39,33.782,58.5.197.342.381.691.704,1.28Z"/>
</svg>